<svg viewBox="0 0 72 72" fill="none" xmlns="http://www.w3.org/2000/svg">
<g clip-path="url(#clip0_4001_5855)">
<path d="M29.9241 13.0045L48.7521 26.8571L52.5301 21.7222L33.7021 7.86957L29.9241 13.0045Z" stroke="currentColor" stroke-width="3" stroke-linejoin="round"/>
<path d="M48.7521 26.8571C49.8471 37.0583 50.4492 42.9465 50.5583 44.5217C50.7228 46.8852 48.9952 48.1468 45.904 45.8724C42.8128 43.5981 44.3579 37.7635 42.0027 36.0307C41.9911 36.0177 37.7343 41.8016 29.2324 53.3822C28.9847 53.7198 28.6728 54.0054 28.3147 54.2224C27.9566 54.4395 27.5592 54.5839 27.1453 54.6473C26.7314 54.7108 26.309 54.692 25.9023 54.5922C25.4956 54.4923 25.1126 54.3133 24.7751 54.0654L24.7725 54.0635C24.0907 53.5618 23.6361 52.8098 23.5087 51.973C23.3813 51.1361 23.5915 50.2829 24.0932 49.6011L29.1368 42.746C23.0743 36.692 19.7844 33.3921 19.2671 32.8461C18.492 32.0279 17.456 29.9505 19.2625 27.4952L29.9241 13.0045L48.7521 26.8571Z" stroke="currentColor" stroke-width="3" stroke-linejoin="round"/>
</g>
<defs>
<clipPath id="clip0_4001_5855">
<rect width="51" height="51" fill="none" transform="translate(71.3033 30.224) rotate(126.344)"/>
</clipPath>
</defs>
</svg>
