<svg width="24" height="24" viewBox="0 0 24 24" fill="none" xmlns="http://www.w3.org/2000/svg">
<path d="M17 10C16.45 10 15.9792 9.80833 15.5875 9.425C15.1958 9.04167 15 8.56667 15 8V4C15 3.43333 15.1958 2.95833 15.5875 2.575C15.9792 2.19167 16.45 2 17 2C17.5667 2 18.0417 2.19167 18.425 2.575C18.8083 2.95833 19 3.43333 19 4V8C19 8.56667 18.8083 9.04167 18.425 9.425C18.0417 9.80833 17.5667 10 17 10ZM5 22C4.45 22 3.97917 21.8042 3.5875 21.4125C3.19583 21.0208 3 20.55 3 20V4C3 3.45 3.19583 2.97917 3.5875 2.5875C3.97917 2.19583 4.45 2 5 2H13V4H5V20H16V18H18V20C18 20.55 17.8042 21.0208 17.4125 21.4125C17.0208 21.8042 16.55 22 16 22H5ZM7 18V16H14V18H7ZM7 15V13H12V15H7ZM18 16H16V13.4C14.7167 13.1667 13.6458 12.5458 12.7875 11.5375C11.9292 10.5292 11.5 9.35 11.5 8H13.5C13.5 8.96667 13.8417 9.79167 14.525 10.475C15.2083 11.1583 16.0333 11.5 17 11.5C17.9833 11.5 18.8125 11.1583 19.4875 10.475C20.1625 9.79167 20.5 8.96667 20.5 8H22.5C22.5 9.35 22.075 10.5292 21.225 11.5375C20.375 12.5458 19.3 13.1667 18 13.4V16Z" fill="currentColor"/>
</svg>
