<svg width="310" height="324" viewBox="0 0 310 324" fill="none" xmlns="http://www.w3.org/2000/svg">
<g clip-path="url(#clip0_1993_2313)">
<path d="M99.5429 209.121C99.5429 209.121 118.024 193.299 116.627 245.513C116.627 245.513 115.83 295.823 108.073 299.902C108.073 299.902 102.512 304.726 93.8803 295.23" stroke="url(#paint0_linear_1993_2313)" stroke-width="2" stroke-miterlimit="10" stroke-linecap="round"/>
<path d="M82.9078 235.073L82.9421 271.139" stroke="url(#paint1_linear_1993_2313)" stroke-miterlimit="10" stroke-linecap="round"/>
<path d="M68.5409 224.333L52.3715 224.165L50.4319 276.776L60.9047 277.343L60.9452 294.579L93.8646 295.232L99.543 209.121L69.2976 209.468L68.5409 224.333Z" stroke="url(#paint2_linear_1993_2313)" stroke-width="2" stroke-miterlimit="10" stroke-linecap="round"/>
<path d="M105.933 233.871L105.457 270.073" stroke="url(#paint3_linear_1993_2313)" stroke-miterlimit="10" stroke-linecap="round"/>
<path d="M226.992 210.942C226.992 210.942 210.997 193.072 204.683 245.008C204.683 245.008 198.051 294.97 205.161 299.932C205.161 299.932 209.968 305.377 219.916 296.974" stroke="url(#paint4_linear_1993_2313)" stroke-width="2" stroke-miterlimit="10" stroke-linecap="round"/>
<path d="M239.659 238.644L234.307 274.377" stroke="url(#paint5_linear_1993_2313)" stroke-miterlimit="10" stroke-linecap="round"/>
<path d="M257.71 229.951L273.767 231.706L267.937 284.081L257.467 283.4L254.889 300.49L222.152 297.257L229.228 211.224L259.158 215.133L257.71 229.951Z" stroke="url(#paint6_linear_1993_2313)" stroke-width="2" stroke-miterlimit="10" stroke-linecap="round"/>
<path d="M217.003 234.713L212.157 270.668" stroke="url(#paint7_linear_1993_2313)" stroke-miterlimit="10" stroke-linecap="round"/>
<path d="M90.9632 208.77C90.9632 208.77 97.644 125.54 147.911 115.249C147.911 115.249 158.054 112.426 173.382 115.01C193.89 118.464 218.095 125.967 229.112 167.219C228.935 167.207 232.252 195.178 232.923 210.763" stroke="url(#paint8_linear_1993_2313)" stroke-width="2" stroke-miterlimit="10" stroke-linecap="round"/>
<path d="M76.5331 209.921C76.5331 209.921 71.2203 87.3958 179.144 96.005C179.144 96.005 255.837 102.88 248.975 213.793" stroke="url(#paint9_linear_1993_2313)" stroke-width="2" stroke-miterlimit="10" stroke-linecap="round"/>
<path d="M107.984 118.674C107.984 118.674 65.1021 92.3603 24.5184 174.59C24.5184 174.59 3.29321 232.278 77.0106 198.82" stroke="url(#paint10_linear_1993_2313)" stroke-width="2" stroke-miterlimit="10" stroke-linecap="round"/>
<path d="M215.717 111.837C215.717 111.837 264.374 81.8856 288.767 160.135C304.663 204.519 288.516 215.761 248.657 192.546" stroke="url(#paint11_linear_1993_2313)" stroke-width="2" stroke-miterlimit="10" stroke-linecap="round"/>
<path d="M201.513 35.242C201.513 35.242 175.013 72.7818 170.784 95.3606" stroke="url(#paint12_linear_1993_2313)" stroke-width="2" stroke-miterlimit="10" stroke-linecap="round"/>
<path d="M141.737 98.7546C141.737 98.7546 124.954 47.2977 114.75 38.9148" stroke="url(#paint13_linear_1993_2313)" stroke-width="2" stroke-miterlimit="10" stroke-linecap="round"/>
<path d="M114.758 38.9175C119.179 37.5897 121.017 31.8294 118.863 26.0514C116.71 20.2734 111.381 16.6658 106.961 17.9936C102.54 19.3214 100.702 25.0817 102.855 30.8597C105.009 36.6377 110.338 40.2453 114.758 38.9175Z" stroke="url(#paint14_linear_1993_2313)" stroke-width="2" stroke-miterlimit="10" stroke-linecap="round"/>
<path d="M212.531 28.336C215.35 22.792 214.198 16.8909 209.958 15.1557C205.718 13.4204 199.995 16.508 197.176 22.052C194.357 27.5961 195.509 33.4971 199.749 35.2324C203.989 36.9676 209.712 33.88 212.531 28.336Z" stroke="url(#paint15_linear_1993_2313)" stroke-width="2" stroke-miterlimit="10" stroke-linecap="round"/>
</g>
<defs>
<linearGradient id="paint0_linear_1993_2313" x1="98.526" y1="207.504" x2="107.636" y2="300.823" gradientUnits="userSpaceOnUse">
<stop stop-color="#0D1B2A"/>
<stop offset="0.240385" stop-color="#3A86FF"/>
</linearGradient>
<linearGradient id="paint1_linear_1993_2313" x1="80.7708" y1="235.282" x2="84.2587" y2="271.011" gradientUnits="userSpaceOnUse">
<stop stop-color="#0D1B2A"/>
<stop offset="0.240385" stop-color="#3A86FF"/>
</linearGradient>
<linearGradient id="paint2_linear_1993_2313" x1="70.922" y1="209.309" x2="79.4471" y2="296.639" gradientUnits="userSpaceOnUse">
<stop stop-color="#0D1B2A"/>
<stop offset="0.240385" stop-color="#3A86FF"/>
</linearGradient>
<linearGradient id="paint3_linear_1993_2313" x1="103.535" y1="234.105" x2="107.032" y2="269.919" gradientUnits="userSpaceOnUse">
<stop stop-color="#0D1B2A"/>
<stop offset="0.240385" stop-color="#3A86FF"/>
</linearGradient>
<linearGradient id="paint4_linear_1993_2313" x1="209.539" y1="209.037" x2="218.503" y2="300.86" gradientUnits="userSpaceOnUse">
<stop stop-color="#0D1B2A"/>
<stop offset="0.240385" stop-color="#3A86FF"/>
</linearGradient>
<linearGradient id="paint5_linear_1993_2313" x1="234.88" y1="239.11" x2="238.285" y2="273.988" gradientUnits="userSpaceOnUse">
<stop stop-color="#0D1B2A"/>
<stop offset="0.240385" stop-color="#3A86FF"/>
</linearGradient>
<linearGradient id="paint6_linear_1993_2313" x1="241.38" y1="210.038" x2="250.254" y2="300.943" gradientUnits="userSpaceOnUse">
<stop stop-color="#0D1B2A"/>
<stop offset="0.240385" stop-color="#3A86FF"/>
</linearGradient>
<linearGradient id="paint7_linear_1993_2313" x1="212.461" y1="235.156" x2="215.892" y2="270.304" gradientUnits="userSpaceOnUse">
<stop stop-color="#0D1B2A"/>
<stop offset="0.240385" stop-color="#3A86FF"/>
</linearGradient>
<linearGradient id="paint8_linear_1993_2313" x1="151.158" y1="114.521" x2="161.236" y2="217.761" gradientUnits="userSpaceOnUse">
<stop stop-color="#0D1B2A"/>
<stop offset="0.240385" stop-color="#3A86FF"/>
</linearGradient>
<linearGradient id="paint9_linear_1993_2313" x1="150.566" y1="96.7718" x2="162.811" y2="222.204" gradientUnits="userSpaceOnUse">
<stop stop-color="#0D1B2A"/>
<stop offset="0.240385" stop-color="#3A86FF"/>
</linearGradient>
<linearGradient id="paint10_linear_1993_2313" x1="60.2375" y1="117.484" x2="68.9421" y2="206.653" gradientUnits="userSpaceOnUse">
<stop stop-color="#0D1B2A"/>
<stop offset="0.240385" stop-color="#3A86FF"/>
</linearGradient>
<linearGradient id="paint11_linear_1993_2313" x1="249.981" y1="104.763" x2="259.909" y2="206.458" gradientUnits="userSpaceOnUse">
<stop stop-color="#0D1B2A"/>
<stop offset="0.240385" stop-color="#3A86FF"/>
</linearGradient>
<linearGradient id="paint12_linear_1993_2313" x1="182.737" y1="37.0749" x2="188.261" y2="93.6546" gradientUnits="userSpaceOnUse">
<stop stop-color="#0D1B2A"/>
<stop offset="0.240385" stop-color="#3A86FF"/>
</linearGradient>
<linearGradient id="paint13_linear_1993_2313" x1="124.512" y1="37.9618" x2="130.553" y2="99.8463" gradientUnits="userSpaceOnUse">
<stop stop-color="#0D1B2A"/>
<stop offset="0.240385" stop-color="#3A86FF"/>
</linearGradient>
<linearGradient id="paint14_linear_1993_2313" x1="106.961" y1="17.9936" x2="113.371" y2="39.3343" gradientUnits="userSpaceOnUse">
<stop stop-color="#0D1B2A"/>
<stop offset="0.240385" stop-color="#3A86FF"/>
</linearGradient>
<linearGradient id="paint15_linear_1993_2313" x1="197.176" y1="22.052" x2="211.916" y2="29.5471" gradientUnits="userSpaceOnUse">
<stop stop-color="#0D1B2A"/>
<stop offset="0.240385" stop-color="#3A86FF"/>
</linearGradient>
<clipPath id="clip0_1993_2313">
<rect width="275.268" height="298.858" fill="white" transform="matrix(0.995269 -0.0971571 0.11998 0.992776 0.0913086 26.8677)"/>
</clipPath>
</defs>
</svg>
