<svg width="188" height="204" viewBox="0 0 188 204" fill="none" xmlns="http://www.w3.org/2000/svg">
<g clip-path="url(#clip0_2168_7954)">
<path d="M149.92 118.69C149.92 118.69 145.36 113.38 141.39 104.38C137.6 95.8 134.97 84.25 133.23 76.45C129.31 55.71 121.18 46.73 121.18 46.73C114.9 38.76 109.16 36.12 103.36 33.9C106.45 30.61 107.93 24.28 107.93 19.41C107.93 9.23999 99.6799 0.98999 89.5099 0.98999C79.3399 0.98999 71.0899 9.23999 71.0899 19.41C71.0899 25.51 74.0699 30.91 78.6399 34.26C70.8999 38.83 66.0999 45.66 66.0999 45.66C66.0999 45.66 59.3999 53.43 51.6299 82.06C51.6299 82.06 44.6599 112.61 34.4199 116.49C32.8299 118.23 107.85 139.45 151.45 120.95C151.87 120.54 149.92 118.68 149.92 118.68V118.69Z" stroke="#F1F1F1" stroke-width="2" stroke-miterlimit="10"/>
<path d="M111.48 100.05C100.14 100.05 90.94 90.85 90.94 79.51C90.94 72.32 94.64 66 100.23 62.33C99.19 62.19 98.13 62.11 97.05 62.11C83.78 62.11 73.02 73.1 73.02 86.66C73.02 100.22 83.78 111.21 97.05 111.21C105.9 111.21 113.63 106.32 117.8 99.04C115.81 99.68 113.69 100.04 111.48 100.04V100.05Z" stroke="#F1F1F1" stroke-width="2" stroke-miterlimit="10"/>
<path d="M75.4 156.36C71.19 155.04 69.02 152.44 69.02 152.44C48.48 157.08 43.22 144.08 43.22 144.08C21.55 147.69 17.27 135.43 17.27 135.43L30.58 124.34C31.21 122.69 50.32 136.24 96.06 137.15C142.06 137.03 142.42 132.13 153.61 127.55L166.21 140.92C166.21 140.92 164.93 147 153.67 145.51C153.67 145.51 149.7 152.79 137.98 149.73C137.98 149.73 129.07 159.12 116.76 152.89C116.76 152.89 102.42 162.15 92.39 153.66C92.31 153.59 90.3 154.69 90.21 154.74C83.89 157.69 78.93 157.47 75.4 156.36Z" stroke="#F1F1F1" stroke-width="2" stroke-miterlimit="10"/>
<path d="M36.03 63.32C36.03 63.32 16.15 75.63 29.97 95.51" stroke="#F1F1F1" stroke-width="2" stroke-miterlimit="10" stroke-linecap="round"/>
<path d="M14.6299 58.78C14.6299 58.78 3.00991 63.93 1.34991 76.89C0.589913 82.87 0.489913 90.5 7.23991 100.06" stroke="#F1F1F1" stroke-width="2" stroke-miterlimit="10" stroke-linecap="round"/>
<path d="M152.69 63.79C152.69 63.79 172.57 76.1 158.75 95.98" stroke="#F1F1F1" stroke-width="2" stroke-miterlimit="10" stroke-linecap="round"/>
<path d="M173.15 58.78C173.15 58.78 185.06 64.28 186.61 77.37C187.31 83.32 187.22 90.59 180.53 100.06" stroke="#F1F1F1" stroke-width="2" stroke-miterlimit="10" stroke-linecap="round"/>
<path d="M68.23 152.44C68.23 152.44 70.47 169.51 91.66 171.44C91.66 171.44 112.32 175.29 119.68 154.89" stroke="#F1F1F1" stroke-width="2" stroke-miterlimit="10" stroke-linecap="round"/>
<path d="M36.0299 203.27C35.2899 203.27 34.9099 202.87 34.9099 202.08V179.26C34.9099 178.47 35.2799 178.07 36.0299 178.07H36.2099C36.8099 178.07 37.2899 178.33 37.6499 178.86L51.3299 199.31V179.26C51.3299 178.47 51.7099 178.07 52.4799 178.07C53.1999 178.07 53.5599 178.47 53.5599 179.26V202.08C53.5599 202.87 53.2099 203.27 52.5199 203.27H52.2999C51.6799 203.27 51.2099 203.01 50.8999 202.48L37.1099 181.82V202.09C37.1099 202.88 36.7499 203.28 36.0299 203.28V203.27Z" fill="#F1F1F1"/>
<path d="M66.3 203.67C64.74 203.67 63.35 203.3 62.14 202.57C60.93 201.84 59.98 200.79 59.3 199.44C58.62 198.08 58.27 196.48 58.27 194.63C58.27 192.78 58.61 191.26 59.3 189.91C59.98 188.57 60.93 187.52 62.13 186.76C63.33 186 64.7 185.63 66.23 185.63C67.76 185.63 69.12 186.01 70.21 186.78C71.3 187.55 72.14 188.52 72.71 189.7C73.29 190.88 73.57 192.08 73.57 193.3C73.57 193.73 73.47 194.03 73.26 194.2C73.06 194.37 72.76 194.45 72.38 194.45H60.46C60.41 196.61 60.92 198.36 61.99 199.69C63.06 201.02 64.5 201.69 66.33 201.69C68.59 201.69 70.27 200.67 71.37 198.63C71.85 198.01 72.34 197.84 72.85 198.13C73.47 198.54 73.56 199.08 73.1 199.75C71.59 202.37 69.32 203.67 66.3 203.67ZM60.62 192.58H71.42C71.3 191.64 71.01 190.79 70.54 190.02C70.07 189.25 69.47 188.64 68.74 188.18C68.01 187.72 67.17 187.5 66.24 187.5C64.78 187.5 63.55 187.95 62.55 188.85C61.55 189.75 60.91 190.99 60.62 192.58Z" fill="#F1F1F1"/>
<path d="M79.2299 203.27C78.4899 203.27 78.1099 202.87 78.1099 202.08V187.21C78.1099 186.42 78.4599 186.02 79.1499 186.02C79.8399 186.02 80.1899 186.28 80.1899 186.81L80.2599 188.72C80.6399 187.83 81.2799 187.09 82.1699 186.49C83.0599 185.89 84.0699 185.59 85.1899 185.59C86.5799 185.59 87.7299 185.91 88.6299 186.56C89.5299 187.21 90.1399 188.11 90.4499 189.26C90.8599 188.2 91.5099 187.33 92.3899 186.63C93.2799 185.93 94.4199 185.59 95.8099 185.59C97.5899 185.59 98.9799 186.15 99.9899 187.26C101 188.38 101.5 190.05 101.5 192.28V202.07C101.5 202.86 101.14 203.26 100.42 203.26C99.6999 203.26 99.2999 202.86 99.2999 202.07V192.6C99.2999 190.78 98.9499 189.49 98.2599 188.75C97.5599 188.01 96.6299 187.63 95.4499 187.63C94.5399 187.63 93.7399 187.86 93.0599 188.33C92.3799 188.8 91.8499 189.41 91.4799 190.17C91.1099 190.93 90.9199 191.75 90.9199 192.64V202.07C90.9199 202.86 90.5599 203.26 89.8399 203.26C89.1199 203.26 88.7199 202.86 88.7199 202.07V192.6C88.7199 190.78 88.3699 189.49 87.6599 188.75C86.9499 188.01 86.0099 187.63 84.8299 187.63C83.9199 187.63 83.1199 187.87 82.4399 188.35C81.7599 188.83 81.2299 189.45 80.8599 190.2C80.4899 190.96 80.2999 191.75 80.2999 192.59V202.06C80.2999 202.85 79.9399 203.25 79.2199 203.25L79.2299 203.27Z" fill="#F1F1F1"/>
<path d="M112.71 203.67C110.89 203.67 109.41 203.08 108.28 201.91C107.15 200.73 106.59 199.05 106.59 196.87V187.22C106.59 186.43 106.95 186.03 107.67 186.03C108.39 186.03 108.75 186.43 108.75 187.22V196.58C108.75 198.26 109.15 199.52 109.96 200.36C110.76 201.2 111.8 201.62 113.07 201.62C114.53 201.62 115.72 201.16 116.63 200.25C117.54 199.34 118 198.22 118 196.9V187.22C118 186.43 118.37 186.03 119.12 186.03C119.87 186.03 120.2 186.43 120.2 187.22V202.05C120.2 202.84 119.86 203.24 119.19 203.24C118.52 203.24 118.15 202.98 118.15 202.45L118.08 200.83C117.58 201.62 116.86 202.29 115.92 202.85C114.98 203.41 113.92 203.68 112.72 203.68L112.71 203.67Z" fill="#F1F1F1"/>
<path d="M126.68 203.27C125.94 203.27 125.56 202.87 125.56 202.08V187.21C125.56 186.42 125.94 186.02 126.71 186.02C127 186.02 127.24 186.1 127.45 186.25C127.65 186.41 127.76 186.66 127.76 187.02V189C128.24 187.99 129 187.17 130.05 186.53C131.1 185.89 132.25 185.58 133.52 185.58C134.14 185.58 134.64 185.67 135 185.85C135.36 186.03 135.54 186.34 135.54 186.77C135.54 187.13 135.44 187.39 135.23 187.56C135.03 187.73 134.78 187.8 134.49 187.78C134.32 187.78 134.14 187.77 133.93 187.74C133.73 187.72 133.52 187.7 133.3 187.7C132.29 187.7 131.37 187.93 130.53 188.4C129.69 188.87 129.02 189.49 128.53 190.27C128.04 191.05 127.79 191.93 127.79 192.92V202.06C127.79 202.85 127.42 203.25 126.67 203.25L126.68 203.27Z" fill="#F1F1F1"/>
<path d="M143.7 203.6C142.02 203.62 140.66 203.24 139.61 202.45C138.56 201.66 138.04 200.51 138.04 198.99C138.04 197.84 138.43 196.83 139.21 195.97C139.99 195.11 140.99 194.43 142.2 193.94C143.41 193.45 144.67 193.2 145.96 193.2C147.74 193.2 149.14 193.62 150.17 194.46V191.51C150.17 189.9 149.83 188.85 149.16 188.36C148.49 187.87 147.41 187.62 145.92 187.62C145.13 187.62 144.26 187.74 143.31 187.98C142.36 188.22 141.5 188.53 140.74 188.92C140.02 189.21 139.5 189.1 139.19 188.6C138.83 187.98 139.02 187.5 139.77 187.16C140.66 186.7 141.66 186.33 142.78 186.04C143.9 185.75 144.95 185.61 145.93 185.61C148.11 185.61 149.72 186.03 150.75 186.87C151.78 187.71 152.3 189.26 152.3 191.51V201.05C152.3 201.36 152.36 201.55 152.48 201.63C152.6 201.7 152.85 201.74 153.24 201.74C153.55 201.74 153.82 201.79 154.03 201.9C154.25 202.01 154.35 202.18 154.35 202.42C154.35 203.02 154.05 203.37 153.45 203.46C153.26 203.51 153.05 203.54 152.84 203.57C152.62 203.59 152.42 203.61 152.23 203.61C151.41 203.61 150.89 203.44 150.65 203.11C150.41 202.77 150.27 202.14 150.22 201.2C149.48 202.02 148.49 202.62 147.27 203C146.05 203.38 144.86 203.59 143.71 203.61L143.7 203.6ZM143.81 201.62C144.96 201.6 146.04 201.42 147.03 201.08C148.03 200.74 148.82 200.26 149.41 199.62C150 198.98 150.27 198.21 150.22 197.3C150.15 196.56 149.74 196 149 195.63C148.26 195.26 147.3 195.09 146.12 195.11C145.14 195.11 144.19 195.28 143.28 195.61C142.37 195.94 141.63 196.41 141.07 197C140.51 197.59 140.22 198.27 140.22 199.03C140.22 199.92 140.56 200.57 141.23 200.99C141.9 201.41 142.77 201.62 143.82 201.62H143.81Z" fill="#F1F1F1"/>
</g>
<defs>
<clipPath id="clip0_2168_7954">
<rect width="187.9" height="203.67" fill="white"/>
</clipPath>
</defs>
</svg>
