<svg width="97" height="97" viewBox="0 0 97 97" fill="none" xmlns="http://www.w3.org/2000/svg">
<circle opacity="0.1" cx="48.5" cy="48.5" r="48.5" fill="#3A86FF"/>
<circle opacity="0.36" cx="48.5001" cy="48.5001" r="42.68" fill="#3A86FF"/>
<g filter="url(#filter0_ddddf_1747_2146)">
<circle cx="49" cy="49" r="34" fill="#F1F1F1"/>
</g>
<path d="M41.9454 56.2198H46.0234V39.9077H41.9454V56.2198ZM50.1015 56.2198H54.1795V39.9077H50.1015V56.2198ZM48.0625 68.4538C45.2418 68.4538 42.5911 67.9186 40.1103 66.8481C37.6295 65.7776 35.4716 64.3248 33.6364 62.4897C31.8013 60.6546 30.3485 58.4967 29.2781 56.0159C28.2076 53.5351 27.6723 50.8843 27.6723 48.0637C27.6723 45.2431 28.2076 42.5924 29.2781 40.1116C30.3485 37.6308 31.8013 35.4728 33.6364 33.6377C35.4716 31.8026 37.6295 30.3498 40.1103 29.2793C42.5911 28.2088 45.2418 27.6736 48.0625 27.6736C50.8831 27.6736 53.5338 28.2088 56.0146 29.2793C58.4954 30.3498 60.6534 31.8026 62.4885 33.6377C64.3236 35.4728 65.7764 37.6308 66.8469 40.1116C67.9173 42.5924 68.4526 45.2431 68.4526 48.0637C68.4526 50.8843 67.9173 53.5351 66.8469 56.0159C65.7764 58.4967 64.3236 60.6546 62.4885 62.4897C60.6534 64.3248 58.4954 65.7776 56.0146 66.8481C53.5338 67.9186 50.8831 68.4538 48.0625 68.4538ZM48.0625 64.3758C52.6162 64.3758 56.4734 62.7956 59.6338 59.6351C62.7943 56.4746 64.3745 52.6175 64.3745 48.0637C64.3745 43.5099 62.7943 39.6528 59.6338 36.4923C56.4734 33.3318 52.6162 31.7516 48.0625 31.7516C43.5087 31.7516 39.6515 33.3318 36.4911 36.4923C33.3306 39.6528 31.7504 43.5099 31.7504 48.0637C31.7504 52.6175 33.3306 56.4746 36.4911 59.6351C39.6515 62.7956 43.5087 64.3758 48.0625 64.3758Z" fill="url(#paint0_linear_1747_2146)"/>
<defs>
<filter id="filter0_ddddf_1747_2146" x="7" y="8" width="84" height="82" filterUnits="userSpaceOnUse" color-interpolation-filters="sRGB">
<feFlood flood-opacity="0" result="BackgroundImageFix"/>
<feColorMatrix in="SourceAlpha" type="matrix" values="0 0 0 0 0 0 0 0 0 0 0 0 0 0 0 0 0 0 127 0" result="hardAlpha"/>
<feOffset dy="4"/>
<feGaussianBlur stdDeviation="1.5"/>
<feComposite in2="hardAlpha" operator="out"/>
<feColorMatrix type="matrix" values="0 0 0 0 0 0 0 0 0 0 0 0 0 0 0 0 0 0 0.25 0"/>
<feBlend mode="normal" in2="BackgroundImageFix" result="effect1_dropShadow_1747_2146"/>
<feColorMatrix in="SourceAlpha" type="matrix" values="0 0 0 0 0 0 0 0 0 0 0 0 0 0 0 0 0 0 127 0" result="hardAlpha"/>
<feOffset dy="-4"/>
<feGaussianBlur stdDeviation="1.5"/>
<feComposite in2="hardAlpha" operator="out"/>
<feColorMatrix type="matrix" values="0 0 0 0 1 0 0 0 0 1 0 0 0 0 1 0 0 0 0.25 0"/>
<feBlend mode="normal" in2="effect1_dropShadow_1747_2146" result="effect2_dropShadow_1747_2146"/>
<feColorMatrix in="SourceAlpha" type="matrix" values="0 0 0 0 0 0 0 0 0 0 0 0 0 0 0 0 0 0 127 0" result="hardAlpha"/>
<feOffset dx="4"/>
<feGaussianBlur stdDeviation="2"/>
<feComposite in2="hardAlpha" operator="out"/>
<feColorMatrix type="matrix" values="0 0 0 0 1 0 0 0 0 1 0 0 0 0 1 0 0 0 0.5 0"/>
<feBlend mode="normal" in2="effect2_dropShadow_1747_2146" result="effect3_dropShadow_1747_2146"/>
<feColorMatrix in="SourceAlpha" type="matrix" values="0 0 0 0 0 0 0 0 0 0 0 0 0 0 0 0 0 0 127 0" result="hardAlpha"/>
<feOffset dx="-4"/>
<feGaussianBlur stdDeviation="2"/>
<feComposite in2="hardAlpha" operator="out"/>
<feColorMatrix type="matrix" values="0 0 0 0 1 0 0 0 0 1 0 0 0 0 1 0 0 0 0.5 0"/>
<feBlend mode="normal" in2="effect3_dropShadow_1747_2146" result="effect4_dropShadow_1747_2146"/>
<feBlend mode="normal" in="SourceGraphic" in2="effect4_dropShadow_1747_2146" result="shape"/>
<feGaussianBlur stdDeviation="0.5" result="effect5_foregroundBlur_1747_2146"/>
</filter>
<linearGradient id="paint0_linear_1747_2146" x1="48.0625" y1="27.6736" x2="48.0625" y2="68.4538" gradientUnits="userSpaceOnUse">
<stop stop-color="#0D1B2A"/>
<stop offset="0.846154" stop-color="#3A86FF"/>
</linearGradient>
</defs>
</svg>
