<svg width="97" height="97" viewBox="0 0 97 97" fill="none" xmlns="http://www.w3.org/2000/svg">
<circle opacity="0.1" cx="48.5" cy="48.5" r="48.5" fill="#3A86FF"/>
<circle opacity="0.36" cx="48.5001" cy="48.5001" r="42.68" fill="#3A86FF"/>
<g filter="url(#filter0_ddddf_1747_2152)">
<circle cx="49" cy="49" r="34" fill="#F1F1F1"/>
</g>
<path d="M42 59.8L58.8 49L42 38.2V59.8ZM48 73C44.68 73 41.56 72.37 38.64 71.11C35.72 69.85 33.18 68.14 31.02 65.98C28.86 63.82 27.15 61.28 25.89 58.36C24.63 55.44 24 52.32 24 49C24 45.68 24.63 42.56 25.89 39.64C27.15 36.72 28.86 34.18 31.02 32.02C33.18 29.86 35.72 28.15 38.64 26.89C41.56 25.63 44.68 25 48 25C51.32 25 54.44 25.63 57.36 26.89C60.28 28.15 62.82 29.86 64.98 32.02C67.14 34.18 68.85 36.72 70.11 39.64C71.37 42.56 72 45.68 72 49C72 52.32 71.37 55.44 70.11 58.36C68.85 61.28 67.14 63.82 64.98 65.98C62.82 68.14 60.28 69.85 57.36 71.11C54.44 72.37 51.32 73 48 73ZM48 68.2C53.36 68.2 57.9 66.34 61.62 62.62C65.34 58.9 67.2 54.36 67.2 49C67.2 43.64 65.34 39.1 61.62 35.38C57.9 31.66 53.36 29.8 48 29.8C42.64 29.8 38.1 31.66 34.38 35.38C30.66 39.1 28.8 43.64 28.8 49C28.8 54.36 30.66 58.9 34.38 62.62C38.1 66.34 42.64 68.2 48 68.2Z" fill="url(#paint0_linear_1747_2152)"/>
<defs>
<filter id="filter0_ddddf_1747_2152" x="7" y="8" width="84" height="82" filterUnits="userSpaceOnUse" color-interpolation-filters="sRGB">
<feFlood flood-opacity="0" result="BackgroundImageFix"/>
<feColorMatrix in="SourceAlpha" type="matrix" values="0 0 0 0 0 0 0 0 0 0 0 0 0 0 0 0 0 0 127 0" result="hardAlpha"/>
<feOffset dy="4"/>
<feGaussianBlur stdDeviation="1.5"/>
<feComposite in2="hardAlpha" operator="out"/>
<feColorMatrix type="matrix" values="0 0 0 0 0 0 0 0 0 0 0 0 0 0 0 0 0 0 0.25 0"/>
<feBlend mode="normal" in2="BackgroundImageFix" result="effect1_dropShadow_1747_2152"/>
<feColorMatrix in="SourceAlpha" type="matrix" values="0 0 0 0 0 0 0 0 0 0 0 0 0 0 0 0 0 0 127 0" result="hardAlpha"/>
<feOffset dy="-4"/>
<feGaussianBlur stdDeviation="1.5"/>
<feComposite in2="hardAlpha" operator="out"/>
<feColorMatrix type="matrix" values="0 0 0 0 1 0 0 0 0 1 0 0 0 0 1 0 0 0 0.25 0"/>
<feBlend mode="normal" in2="effect1_dropShadow_1747_2152" result="effect2_dropShadow_1747_2152"/>
<feColorMatrix in="SourceAlpha" type="matrix" values="0 0 0 0 0 0 0 0 0 0 0 0 0 0 0 0 0 0 127 0" result="hardAlpha"/>
<feOffset dx="4"/>
<feGaussianBlur stdDeviation="2"/>
<feComposite in2="hardAlpha" operator="out"/>
<feColorMatrix type="matrix" values="0 0 0 0 1 0 0 0 0 1 0 0 0 0 1 0 0 0 0.5 0"/>
<feBlend mode="normal" in2="effect2_dropShadow_1747_2152" result="effect3_dropShadow_1747_2152"/>
<feColorMatrix in="SourceAlpha" type="matrix" values="0 0 0 0 0 0 0 0 0 0 0 0 0 0 0 0 0 0 127 0" result="hardAlpha"/>
<feOffset dx="-4"/>
<feGaussianBlur stdDeviation="2"/>
<feComposite in2="hardAlpha" operator="out"/>
<feColorMatrix type="matrix" values="0 0 0 0 1 0 0 0 0 1 0 0 0 0 1 0 0 0 0.5 0"/>
<feBlend mode="normal" in2="effect3_dropShadow_1747_2152" result="effect4_dropShadow_1747_2152"/>
<feBlend mode="normal" in="SourceGraphic" in2="effect4_dropShadow_1747_2152" result="shape"/>
<feGaussianBlur stdDeviation="0.5" result="effect5_foregroundBlur_1747_2152"/>
</filter>
<linearGradient id="paint0_linear_1747_2152" x1="48" y1="25" x2="48" y2="73" gradientUnits="userSpaceOnUse">
<stop stop-color="#0D1B2A"/>
<stop offset="0.898524" stop-color="#3A86FF"/>
</linearGradient>
</defs>
</svg>
