<svg width="430" height="203" viewBox="0 0 430 203" fill="none" xmlns="http://www.w3.org/2000/svg">
<path d="M0 94.6268C129.467 98.5949 136.594 14.7984 206.835 16.549C208.131 16.549 209.427 16.549 210.853 16.549C284.464 14.7984 312.586 115.984 429.87 102.096" fill="url(#paint0_linear_1232_1457)"/>
<path d="M0.387207 84.0224C90.8658 91.0144 113.777 69.4558 152.479 54.19C180.697 43.0028 212.281 41.6044 241.793 49.5287C308.713 67.5913 346.769 99.7543 429.74 68.5235V221.5H0.387207V84.0224Z" fill="url(#paint1_linear_1232_1457)"/>
<path d="M0.387207 80.0595C46.209 54.0727 104.975 81.691 202.055 88.6829C206.067 89.0325 210.21 89.1491 214.352 89.0325C286.968 86.9349 351.817 37.525 429.74 51.1594" stroke="#F1F1F1" stroke-opacity="0.5" stroke-miterlimit="10"/>
<path d="M0.387207 94.5095C129.698 98.4716 136.688 14.801 206.974 16.549C208.268 16.549 209.562 16.549 210.986 16.549C284.508 14.801 312.597 115.835 429.74 101.968" stroke="#F1F1F1" stroke-opacity="0.5" stroke-miterlimit="10"/>
<path d="M0.387207 84.0224C90.8658 91.0144 113.777 69.4558 152.479 54.19C180.697 43.0028 212.281 41.6044 241.793 49.5287C308.713 67.5913 346.769 99.7543 429.74 68.5235" stroke="#3A86FF" stroke-miterlimit="10"/>
<defs>
<linearGradient id="paint0_linear_1232_1457" x1="214.899" y1="36.6583" x2="214.899" y2="16.4949" gradientUnits="userSpaceOnUse">
<stop stop-color="#004E9A"/>
<stop offset="1" stop-color="#003569"/>
</linearGradient>
<linearGradient id="paint1_linear_1232_1457" x1="215.027" y1="157.398" x2="215.027" y2="44.4771" gradientUnits="userSpaceOnUse">
<stop stop-color="#0A5ADA"/>
<stop offset="1" stop-color="#003569"/>
</linearGradient>
</defs>
</svg>
