<svg width="24" height="24" viewBox="0 0 24 24" fill="currentColor" xmlns="http://www.w3.org/2000/svg">
<path d="M14.5085 11.9996C14.5084 10.6144 13.3849 9.49149 11.9996 9.49149C10.6145 9.49163 9.49163 10.6145 9.49149 11.9996C9.49149 13.3849 10.6144 14.5084 11.9996 14.5085C13.385 14.5085 14.5085 13.385 14.5085 11.9996ZM16 11.9996C16 14.2087 14.2087 16 11.9996 16C9.79067 15.9999 8 14.2086 8 11.9996C8.00014 9.79076 9.79076 8.00014 11.9996 8C14.2086 8 15.9999 9.79067 16 11.9996Z" fill="currentColor"/>
<path d="M13.1542 2.89334C13.1542 2.58726 13.0323 2.29389 12.8159 2.07745C12.5995 1.861 12.3061 1.73913 12 1.73913C11.6939 1.73913 11.4005 1.861 11.1841 2.07745C10.9677 2.29389 10.8458 2.58726 10.8458 2.89334V3.06861C10.8438 3.56376 10.6973 4.04776 10.4239 4.4606C10.1505 4.87346 9.76222 5.19759 9.30707 5.39266C9.22882 5.4262 9.14607 5.44702 9.06182 5.45652C8.64442 5.60536 8.19427 5.6433 7.75611 5.56386C7.25713 5.47332 6.79667 5.23568 6.4341 4.88111L6.36617 4.81318C6.25898 4.70587 6.13128 4.62058 5.99117 4.5625C5.85117 4.5045 5.70113 4.47489 5.54959 4.47486C5.39792 4.47486 5.24745 4.50442 5.10734 4.5625C4.96727 4.62057 4.84018 4.70591 4.73302 4.81318L4.73234 4.81386C4.62507 4.921 4.53974 5.04814 4.48166 5.18818C4.42358 5.32829 4.39334 5.47876 4.39334 5.63043C4.39335 5.78199 4.42366 5.932 4.48166 6.07201C4.52524 6.17714 4.58427 6.27516 4.65625 6.36277L4.73234 6.44701L4.80027 6.51495C5.15491 6.87759 5.39252 7.33854 5.48302 7.83764C5.57344 8.33666 5.51247 8.85122 5.30774 9.31522L5.30707 9.31454C5.12794 9.7712 4.82214 10.1673 4.42255 10.4531C4.00817 10.7495 3.51409 10.9147 3.00476 10.9266H2.89334C2.58728 10.9266 2.29388 11.0486 2.07745 11.2649C1.86103 11.4814 1.73916 11.7748 1.73913 12.0808C1.73913 12.3869 1.86101 12.6803 2.07745 12.8967C2.29389 13.1132 2.58724 13.2351 2.89334 13.2351H3.06861C3.56374 13.237 4.04777 13.3836 4.4606 13.6569C4.87343 13.9303 5.19759 14.3187 5.39266 14.7738H5.3913C5.59335 15.2358 5.65386 15.7475 5.56386 16.2439C5.47332 16.7429 5.23568 17.2033 4.88111 17.5659L4.81318 17.6338C4.70587 17.741 4.62058 17.8687 4.5625 18.0088C4.5045 18.1488 4.47489 18.2989 4.47486 18.4504C4.47486 18.6021 4.50442 18.7526 4.5625 18.8927C4.60611 18.9978 4.66506 19.0958 4.73709 19.1834L4.81318 19.267L4.81386 19.2677C4.921 19.3749 5.04814 19.4603 5.18818 19.5183C5.32829 19.5764 5.47876 19.6067 5.63043 19.6067C5.78198 19.6066 5.932 19.5763 6.07201 19.5183C6.21212 19.4603 6.33982 19.375 6.44701 19.2677L6.51495 19.1997C6.87759 18.8451 7.33854 18.6075 7.83764 18.517C8.33666 18.4266 8.85122 18.4875 9.31522 18.6923H9.31454C9.77129 18.8714 10.1672 19.1778 10.4531 19.5774C10.7495 19.9918 10.9147 20.4859 10.9266 20.9952V21.1067C10.9266 21.4127 11.0486 21.7061 11.2649 21.9226C11.4814 22.139 11.7748 22.2608 12.0808 22.2609C12.3869 22.2609 12.6803 22.139 12.8967 21.9226C13.1132 21.7061 13.2351 21.4128 13.2351 21.1067V20.9314C13.237 20.4363 13.3836 19.9522 13.6569 19.5394C13.9303 19.1266 14.3187 18.8024 14.7738 18.6073V18.608C15.2358 18.4061 15.7476 18.3462 16.2439 18.4361C16.7429 18.5267 17.2033 18.7643 17.5659 19.1189L17.6338 19.1868C17.741 19.2941 17.8687 19.3794 18.0088 19.4375C18.1488 19.4955 18.2989 19.5251 18.4504 19.5251C18.6021 19.5251 18.7526 19.4956 18.8927 19.4375C19.0327 19.3794 19.1598 19.2941 19.267 19.1868L19.2677 19.1861C19.3749 19.079 19.4603 18.9519 19.5183 18.8118C19.5764 18.6717 19.6067 18.5212 19.6067 18.3696C19.6066 18.218 19.5763 18.068 19.5183 17.928C19.4748 17.8229 19.4157 17.7248 19.3438 17.6372L19.2677 17.553L19.1997 17.4851C18.8451 17.1224 18.6075 16.6615 18.517 16.1624C18.4271 15.6662 18.487 15.1548 18.6889 14.6929H18.6882C18.8833 14.2378 19.2074 13.8495 19.6202 13.5761C20.0331 13.3027 20.5171 13.1562 21.0122 13.1542H21.1067C21.4127 13.1542 21.7061 13.0323 21.9226 12.8159C22.139 12.5995 22.2609 12.3061 22.2609 12C22.2609 11.6939 22.139 11.4005 21.9226 11.1841C21.7061 10.9677 21.4127 10.8458 21.1067 10.8458H20.9314C20.4362 10.8438 19.9522 10.6973 19.5394 10.4239C19.1265 10.1505 18.8024 9.76221 18.6073 9.30707C18.5738 9.2288 18.5523 9.14609 18.5428 9.06182C18.394 8.64448 18.3567 8.19419 18.4361 7.75611C18.5267 7.25714 18.7643 6.79668 19.1189 6.4341L19.1868 6.36617L19.2629 6.28193C19.3349 6.19431 19.3939 6.0963 19.4375 5.99117C19.4955 5.85117 19.5251 5.70113 19.5251 5.54959C19.5251 5.39792 19.4956 5.24745 19.4375 5.10734C19.3794 4.96727 19.2941 4.84018 19.1868 4.73302L19.1861 4.73234C19.079 4.62507 18.9519 4.53974 18.8118 4.48166C18.6717 4.42358 18.5212 4.39334 18.3696 4.39334C18.218 4.39335 18.068 4.42366 17.928 4.48166C17.8229 4.52524 17.7248 4.58428 17.6372 4.65625L17.553 4.73234L17.4851 4.80027C17.1224 5.15491 16.6615 5.39252 16.1624 5.48302C15.6661 5.57293 15.1549 5.51242 14.6929 5.31046V5.31182C14.2378 5.11675 13.8495 4.79262 13.5761 4.37976C13.3027 3.9669 13.1562 3.48295 13.1542 2.98777V2.89334ZM14.8933 2.98098L14.9022 3.09715C14.9195 3.21183 14.962 3.32167 15.0265 3.41916C15.0911 3.51667 15.1756 3.59893 15.2745 3.65965L15.3784 3.71332L15.3865 3.71671L15.4993 3.75679C15.6139 3.78802 15.7347 3.79311 15.8526 3.77174C16.0098 3.74319 16.1548 3.66811 16.269 3.55639L16.3227 3.50272C16.5913 3.23383 16.9104 3.02056 17.2615 2.875C17.6128 2.72941 17.9894 2.65422 18.3696 2.65421C18.7498 2.65421 19.1264 2.72941 19.4776 2.875C19.8285 3.02049 20.1472 3.23401 20.4158 3.50272L20.5143 3.6053C20.7374 3.85121 20.9167 4.13421 21.0442 4.44158C21.1897 4.79276 21.2643 5.16943 21.2643 5.54959C21.2642 5.92975 21.1897 6.30643 21.0442 6.65761C20.8987 7.00855 20.6851 7.32723 20.4164 7.59579L20.3621 7.65014L20.2853 7.74117C20.2158 7.83754 20.1681 7.94866 20.1467 8.06658C20.1182 8.22386 20.1379 8.38637 20.2024 8.53261C20.23 8.59511 20.2487 8.66073 20.2609 8.72758C20.3214 8.82543 20.4027 8.90942 20.4993 8.97351C20.6294 9.05965 20.7822 9.10604 20.9382 9.10666H21.1067C21.874 9.10666 22.6103 9.41123 23.1529 9.9538C23.6954 10.4964 24 11.2327 24 12C24 12.7673 23.6954 13.5036 23.1529 14.0462C22.6103 14.5888 21.874 14.8933 21.1067 14.8933H21.019L20.9029 14.9022C20.7882 14.9195 20.6783 14.962 20.5808 15.0265C20.4508 15.1126 20.3481 15.235 20.2867 15.3784L20.2833 15.3865C20.2187 15.5328 20.1997 15.6953 20.2283 15.8526C20.2568 16.0098 20.3319 16.1548 20.4436 16.269L20.4973 16.3227H20.4966C20.7656 16.5914 20.9794 16.9104 21.125 17.2615C21.2706 17.6128 21.3458 17.9894 21.3458 18.3696C21.3458 18.7498 21.2706 19.1264 21.125 19.4776C20.9795 19.8285 20.7653 20.1465 20.4966 20.4151L20.4973 20.4158C20.2286 20.6847 19.9096 20.8986 19.5584 21.0442C19.2072 21.1897 18.8306 21.2643 18.4504 21.2643C18.0702 21.2642 17.6936 21.1897 17.3424 21.0442C16.9914 20.8987 16.6728 20.6852 16.4042 20.4164L16.3499 20.3621C16.2356 20.2504 16.0906 20.1752 15.9334 20.1467C15.7761 20.1182 15.6136 20.1379 15.4674 20.2024L15.4592 20.2058C15.3159 20.2673 15.1935 20.3694 15.1073 20.4993C15.0212 20.6294 14.9748 20.7822 14.9742 20.9382V21.1067C14.9742 21.874 14.6696 22.6103 14.127 23.1529C13.5844 23.6954 12.8482 24 12.0808 24C11.3137 24 10.5779 23.6953 10.0353 23.1529C9.49273 22.6103 9.1875 21.874 9.1875 21.1067V21.0292C9.18246 20.8711 9.13079 20.7177 9.03872 20.589C8.94536 20.4586 8.81494 20.359 8.6644 20.3037C8.64725 20.2974 8.63018 20.2907 8.61345 20.2833C8.46721 20.2187 8.3047 20.1997 8.14742 20.2283C7.99022 20.2568 7.8452 20.3319 7.73098 20.4436L7.67731 20.4973L7.67663 20.4966C7.40799 20.7655 7.08956 20.9794 6.73845 21.125C6.38724 21.2706 6.01063 21.3458 5.63043 21.3458C5.25023 21.3458 4.87364 21.2706 4.52242 21.125C4.17118 20.9794 3.85227 20.7656 3.58356 20.4966V20.4959C3.31506 20.2274 3.10125 19.9092 2.95584 19.5584C2.81029 19.2072 2.73573 18.8306 2.73573 18.4504C2.73576 18.0702 2.81026 17.6936 2.95584 17.3424C3.10144 16.9912 3.31527 16.6722 3.58424 16.4035L3.63995 16.3478C3.75049 16.2339 3.82493 16.0897 3.85326 15.9334C3.88178 15.7761 3.8621 15.6136 3.79755 15.4674L3.79416 15.4592C3.73274 15.3159 3.63063 15.1935 3.50068 15.1073C3.3706 15.0212 3.21784 14.9748 3.06182 14.9742H2.89334C2.126 14.9742 1.38974 14.6696 0.847147 14.127C0.304565 13.5844 0 12.8482 0 12.0808C2.81057e-05 11.3137 0.304736 10.5779 0.847147 10.0353C1.38974 9.49273 2.126 9.1875 2.89334 9.1875H2.97079C3.12887 9.18246 3.28228 9.13079 3.41101 9.03872C3.54144 8.94536 3.64095 8.81494 3.69633 8.6644L3.71671 8.61345C3.78125 8.46721 3.80026 8.3047 3.77174 8.14742C3.75034 8.02957 3.70333 7.91833 3.63383 7.82201L3.55639 7.73098L3.50272 7.67731V7.67663C3.23399 7.40806 3.0205 7.08941 2.875 6.73845C2.72941 6.38724 2.65422 6.01063 2.65421 5.63043C2.65421 5.25023 2.72941 4.87365 2.875 4.52242C3.0206 4.17118 3.23439 3.85227 3.5034 3.58356C3.77195 3.3149 4.09066 3.10131 4.44158 2.95584C4.79277 2.81029 5.16943 2.73573 5.54959 2.73573C5.92975 2.73576 6.30643 2.81026 6.65761 2.95584C7.00855 3.10134 7.32723 3.31485 7.59579 3.58356L7.65014 3.63791L7.74117 3.71467C7.83754 3.78421 7.94866 3.83188 8.06658 3.85326C8.22386 3.88178 8.38637 3.8621 8.53261 3.79755L8.61685 3.76563C8.6531 3.75395 8.69016 3.74528 8.72758 3.73845C8.8253 3.67796 8.90949 3.59724 8.97351 3.50068C9.05903 3.37154 9.10538 3.22005 9.10666 3.06522V2.89334C9.10666 2.12601 9.41123 1.38974 9.9538 0.847147C10.4964 0.304552 11.2327 0 12 0C12.7673 0 13.5036 0.304552 14.0462 0.847147C14.5888 1.38974 14.8933 2.12601 14.8933 2.89334V2.98098Z" fill="currentColor" />
</svg>
